<?xml version="1.0" standalone="no"?>
<!DOCTYPE svg PUBLIC "-//W3C//DTD SVG 20010904//EN"
 "http://www.w3.org/TR/2001/REC-SVG-20010904/DTD/svg10.dtd">
<svg version="1.0" xmlns="http://www.w3.org/2000/svg"
 width="311.000000pt" height="509.000000pt" viewBox="0 0 311.000000 509.000000"
 preserveAspectRatio="xMidYMid meet">

<g transform="translate(0.000000,509.000000) scale(0.100000,-0.100000)"
fill="#000000" stroke="none">
<path d="M492 5043 c32 -2 84 -2 115 0 32 2 6 3 -57 3 -63 0 -89 -1 -58 -3z"/>
<path d="M231 4904 l-31 -26 0 -2291 c1 -1786 3 -2296 13 -2308 30 -39 13 -39
1367 -39 1354 0 1337 0 1367 39 18 23 18 4589 0 4612 -30 39 -13 39 -1371 39
l-1314 0 -31 -26z m2695 -15 c19 -21 19 -73 19 -2304 0 -2231 0 -2283 -19
-2304 l-19 -21 -1327 0 -1327 0 -19 21 c-19 21 -19 73 -19 2304 0 2231 0 2283
19 2304 l19 21 1327 0 1327 0 19 -21z"/>
<path d="M265 4850 c-24 -27 -13 -68 22 -76 34 -9 57 6 61 40 6 53 -47 76 -83
36z m71 -22 c7 -22 -19 -52 -40 -45 -17 6 -29 34 -23 51 10 24 54 21 63 -6z"/>
<path d="M988 4863 c325 -2 859 -2 1185 0 325 1 59 2 -593 2 -652 0 -918 -1
-592 -2z"/>
<path d="M2821 4856 c-16 -19 -10 -66 10 -79 26 -16 68 0 75 29 12 47 -55 87
-85 50z m66 -22 c6 -17 -6 -45 -23 -51 -21 -7 -47 23 -40 45 9 27 53 30 63 6z"/>
<path d="M1239 4754 c26 -34 27 -68 1 -94 -25 -25 -25 -31 -2 -23 57 20 71 86
26 122 -37 29 -50 26 -25 -5z"/>
<path d="M1370 4773 c0 -5 7 -17 15 -27 19 -25 19 -56 0 -83 -26 -37 16 -40
58 -5 24 21 22 77 -3 102 -19 19 -70 28 -70 13z"/>
<path d="M1545 4755 c-28 -27 -32 -61 -10 -92 47 -66 150 -8 123 70 -18 51
-74 62 -113 22z"/>
<path d="M1745 4755 c-39 -38 -32 -86 16 -110 15 -8 35 -12 44 -9 14 6 14 8 1
23 -8 9 -16 23 -17 31 -5 22 10 70 21 70 6 0 10 5 10 10 0 20 -51 10 -75 -15z"/>
<path d="M1927 4769 c-46 -27 -41 -105 9 -128 36 -16 40 -14 17 12 -34 35 -34
76 -1 107 24 22 8 28 -25 9z"/>
<path d="M2890 2585 c0 -1423 3 -2145 10 -2145 7 0 10 722 10 2145 0 1423 -3
2145 -10 2145 -7 0 -10 -722 -10 -2145z"/>
<path d="M1220 535 c0 -3 9 -14 20 -25 29 -29 26 -74 -6 -99 -24 -19 -24 -21
-7 -21 50 0 84 89 46 122 -19 16 -53 31 -53 23z"/>
<path d="M1377 534 c-3 -4 0 -16 8 -28 19 -27 19 -70 0 -86 -22 -18 -18 -30 8
-30 56 0 91 86 50 122 -22 19 -57 31 -66 22z"/>
<path d="M1560 527 c-13 -7 -29 -25 -34 -39 -29 -83 94 -137 128 -56 17 39 11
63 -22 88 -29 23 -38 24 -72 7z"/>
<path d="M1765 528 c-50 -27 -59 -75 -20 -113 13 -14 36 -25 50 -25 29 0 31 5
10 26 -19 20 -19 78 0 94 29 24 -2 39 -40 18z"/>
<path d="M1933 528 c-48 -23 -51 -103 -4 -127 33 -18 46 -12 23 9 -33 31 -33
72 1 108 22 24 15 27 -20 10z"/>
<path d="M266 384 c-21 -21 -20 -47 2 -67 22 -20 53 -22 70 -5 15 15 15 61 0
76 -17 17 -54 15 -72 -4z m58 -7 c28 -21 12 -59 -22 -55 -30 3 -41 30 -22 53
15 18 21 19 44 2z"/>
<path d="M2822 388 c-7 -7 -12 -24 -12 -38 0 -32 17 -50 45 -50 25 0 55 29 55
53 0 38 -61 62 -88 35z m61 -20 c15 -23 1 -48 -27 -48 -33 0 -46 38 -20 57 21
15 34 13 47 -9z"/>
<path d="M988 303 c325 -2 859 -2 1185 0 325 1 59 2 -593 2 -652 0 -918 -1
-592 -2z"/>
</g>
</svg>
